<svg xmlns="http://www.w3.org/2000/svg" viewBox="0 0 167.04 140"><defs><style>.cls-1{fill:#7857a4;}.cls-2{fill:#f89a26;}.cls-3{fill:#c75364;}</style></defs><title>docs</title><g id="Layer_2" data-name="Layer 2"><g id="Layer_1-2" data-name="Layer 1"><path class="cls-1" d="M77.77,138.6,2.33,93.44c-3.11-1.86-3.11-4.87,0-6.74L78,41.4a12,12,0,0,1,11.26,0l75.43,45.16c3.11,1.86,3.11,4.87,0,6.74L89,138.6A12,12,0,0,1,77.77,138.6Z"/><path class="cls-2" d="M77.77,118.6,2.33,73.44c-3.11-1.86-3.11-4.87,0-6.74L78,21.4a12,12,0,0,1,11.26,0l75.43,45.16c3.11,1.86,3.11,4.87,0,6.74L89,118.6A12,12,0,0,1,77.77,118.6Z"/><path class="cls-3" d="M77.77,98.6,2.33,53.44c-3.11-1.86-3.11-4.87,0-6.74L78,1.4a12,12,0,0,1,11.26,0l75.43,45.16c3.11,1.86,3.11,4.87,0,6.74L89,98.6A12,12,0,0,1,77.77,98.6Z"/></g></g></svg>